<?xml version="1.0" standalone="no"?>
<!DOCTYPE svg PUBLIC "-//W3C//DTD SVG 1.1//EN" "http://www.w3.org/Graphics/SVG/1.1/DTD/svg11.dtd" >
<svg xmlns="http://www.w3.org/2000/svg">
<metadata></metadata>
<defs>
<font id="helvnueoutlinenormal" horiz-adv-x="1368" >
<font-face units-per-em="2048" ascent="1638" descent="-410" />
<missing-glyph horiz-adv-x="684" />
<glyph horiz-adv-x="2048" />
<glyph horiz-adv-x="2048" />
<glyph unicode="&#xd;" horiz-adv-x="684" />
<glyph unicode=" "  horiz-adv-x="684" />
<glyph unicode="&#x09;" horiz-adv-x="684" />
<glyph unicode="&#xa0;" horiz-adv-x="684" />
<glyph unicode="!" horiz-adv-x="645" d="M84 1116v346q0 25 25 25h426q26 0 26 -25l-2 -346l-113 -594q-4 -23 -24 -22h-199q-20 0 -24 22zM86 0v406q0 25 25 24h421q27 0 27 -24v-406q0 -27 -27 -27h-421q-25 0 -25 27zM133 1120l111 -569h157l109 569v316h-375zM137 25h371v354h-371v-354z" />
<glyph unicode="&#x22;" horiz-adv-x="1062" d="M133 686v776q0 25 25 25h315q27 0 27 -25v-776q0 -27 -27 -27h-315q-25 0 -25 27zM184 711h265v725h-265v-725zM569 686v776q0 25 25 25h315q27 0 27 -25v-776q0 -27 -27 -27h-315q-25 0 -25 27zM621 711h264v725h-264v-725z" />
<glyph unicode="#" d="M106 383l33 240q2 20 25 20h151l21 145h-141q-29 0 -25 31l33 240q2 20 24 20h148l49 351q2 20 25 20h272q29 0 24 -29l-47 -342h90l50 351q2 20 24 20h273q29 0 24 -29l-47 -342h131q29 1 25 -28l-33 -240q-4 -23 -25 -23h-137l-20 -145h127q29 0 24 -29l-33 -239 q-4 -23 -24 -23h-135l-49 -356q-4 -23 -25 -23h-272q-29 0 -25 31l49 348h-92l-49 -356q-4 -23 -25 -23h-272q-29 0 -25 31l49 348h-145q-29 0 -25 31zM160 403h145q29 0 25 -28l-49 -350h221l51 358q2 20 25 20h141q29 0 24 -28l-49 -350h221l52 358q2 20 24 20h133l27 189 h-127q-29 0 -25 31l27 196q2 20 25 21h137l26 188h-131q-29 0 -24 31l47 340h-223l-47 -348q-4 -23 -25 -23h-141q-29 0 -25 31l47 340h-223l-47 -348q-4 -23 -25 -23h-147l-27 -188h142q29 0 24 -29l-27 -197q-4 -23 -24 -22h-152zM586 623l26 196q2 20 25 21h141 q29 0 25 -29l-27 -197q-4 -23 -24 -22h-142q-29 0 -24 31zM639 643h90l21 145h-91z" />
<glyph unicode="$" d="M4 485q0 25 25 25l434 2q27 0 26 -25q0 -80 41 -125q49 -55 154 -55q92 0 147.5 32t55.5 89q0 55 -123 94q-37 12 -248 68q-246 63 -350.5 163.5t-104.5 266.5q0 236 170 369q76 59 172.5 94t210.5 35l-2 145q0 25 25 25h106q25 0 25 -25l2 -145q125 0 223.5 -37 t163.5 -99q154 -139 154 -362q0 -27 -27 -27h-395q-25 0 -25 27q0 76 -54 103.5t-146 27.5q-63 0 -104.5 -17.5t-41.5 -52.5q0 -55 135 -94q61 -16 185 -43q264 -57 387 -158q141 -116 141 -325q0 -254 -192 -391q-80 -59 -182.5 -95t-219.5 -36l-2 -177q0 -27 -27 -26h-106 q-25 0 -25 26l2 175q-137 0 -248.5 40.5t-189.5 114.5q-172 162 -172 393zM53 459q0 -94 39 -175t118 -153t184.5 -109.5t246.5 -37.5q25 0 25 -25l2 -168q0 -8 18 -8q8 0 16.5 1t16.5 3l2 174q0 25 22 25q119 0 220.5 32.5t181.5 92.5q170 127 170 350q0 188 -131 293 q-109 88 -357 141q-172 33 -266 79t-94 107q0 53 54 87t143 34q113 0 177 -33.5t72 -124.5h347q0 90 -36 165t-99.5 134.5t-158 93t-223.5 33.5q-23 0 -22 25l-2 141h-57l2 -141q0 -25 -25 -25q-115 0 -209 -31.5t-166 -90.5q-152 -115 -151 -328q0 -150 94 -236 t331.5 -148.5t318.5 -105.5t81 -102q0 -78 -67.5 -125t-186.5 -47q-123 0 -183.5 58.5t-60.5 146.5z" />
<glyph unicode="%" horiz-adv-x="2086" d="M113 1049q0 197 100 307t285 110q188 0 287.5 -109.5t99.5 -314.5q0 -199 -101.5 -306t-287.5 -107q-182 0 -282.5 110.5t-100.5 309.5zM164 1049q0 -174 87 -271.5t245 -97.5q162 0 250 94t88 268q0 180 -86 276.5t-250 96.5q-158 0 -246 -96t-88 -270zM379 1034 q0 254 119 254q68 0 94 -58.5t26 -195.5q0 -104 -32.5 -165.5t-87.5 -61.5q-119 0 -119 227zM430 1034q0 -74 7 -125t61 -51q39 0 54 45t15 131q0 104 -2 123q-8 80 -67 80q-55 0 -61.5 -58.5t-6.5 -144.5zM471 -59q0 8 6 18l842 1532q6 12 22 12h226q29 0 28 -20 q0 -7 -6 -17l-841 -1532q-8 -14 -23 -14h-225q-29 0 -29 21zM543 -29h166l815 1481h-168zM1206 373q0 199 99.5 308.5t285.5 109.5t286.5 -110.5t100.5 -313.5q0 -197 -102 -305.5t-287 -108.5q-182 0 -282.5 110.5t-100.5 309.5zM1257 373q0 -174 87.5 -271.5t244.5 -97.5 q160 0 249 95.5t89 267.5q0 178 -87 275t-249 97t-248 -96t-86 -270zM1473 358q0 254 118 254q68 0 94.5 -58.5t26.5 -195.5q0 -104 -32.5 -165.5t-88.5 -61.5q-119 0 -118 227zM1524 358q0 -76 7 -126t60 -50q39 0 54.5 45t15.5 131q0 104 -2 123q-8 80 -68 80 q-55 0 -61 -58.5t-6 -144.5z" />
<glyph unicode="&#x26;" horiz-adv-x="1517" d="M53 422q0 190 133 311q33 31 74 60.5t100 64.5l-36 51q-61 90 -62 209q0 176 135 290t336 114q225 0 354.5 -105.5t129.5 -300.5q0 -143 -115 -266q-47 -57 -141 -115l75 -88l27 72q6 18 24 18h338q31 0 25 -28q-31 -176 -115 -289l-49 -66l287 -338q10 -14 10 -22 q0 -20 -31 -21h-479q-18 6 -20 11l-64 82q-27 -18 -64.5 -40t-62.5 -32q-70 -29 -131 -42t-125 -13q-264 0 -413 143q-139 133 -140 340zM104 422q0 -186 125 -303q137 -129 377 -129q119 0 236 51q66 29 135 82q12 8 18 8q8 0 19 -12l73 -94h410l-266 313q-6 6 -6 16 q0 6 6 17l63 80q70 94 101 235h-289q-12 -37 -21.5 -55.5t-29.5 -40.5q-8 -10 -19 -10q-12 0 -20 10l-115 135q-6 10 -6 18q0 12 14 21q102 61 156 119q49 57 74.5 114.5t25.5 118.5q0 168 -117.5 261t-314.5 93q-176 0 -298 -99t-122 -253q0 -96 54 -180q10 -18 23 -35.5 t30 -36.5q8 -8 8 -18t-16 -21q-109 -57 -193 -131q-115 -109 -115 -274zM440 426q0 82 78 133l74 47q10 6 16 6q8 0 19 -10l168 -209q8 -12 8 -18q0 -8 -12 -19l-68 -53q-53 -41 -125 -41q-61 0 -109.5 48t-48.5 116zM492 426q0 -45 31.5 -79t74.5 -34q27 0 49.5 8.5 t44.5 22.5l45 37l-137 170l-53 -35q-55 -41 -55 -90zM610 1122q0 53 41 90t90 37q53 0 90 -35t37 -86q0 -76 -65 -131q-6 -6 -28.5 -21t-39.5 -26q-20 -10 -30 4l-15 19q-41 47 -60.5 83t-19.5 66zM662 1122q0 -41 65 -116q18 12 25 16q14 10 16 12q27 25 38 45t11 49 t-21.5 49.5t-54.5 20.5q-31 0 -55 -20.5t-24 -55.5z" />
<glyph unicode="'" horiz-adv-x="606" d="M123 686v776q0 25 24 25h316q27 0 26 -25v-776q0 -27 -26 -27h-316q-25 0 -24 27zM174 711h264v725h-264v-725z" />
<glyph unicode="(" horiz-adv-x="645" d="M63 578q0 272 70 536q57 217 152 395q6 12 22 13h352q41 0 23 -35q-76 -168 -123 -391q-55 -256 -55 -518q0 -258 55 -519q47 -219 123 -391q16 -37 -23 -37h-352q-14 0 -22 15q-94 178 -152 393q-70 262 -70 539zM115 578q0 -260 65 -515q53 -203 144 -380h299 q-74 172 -119 389q-51 248 -51 506q0 250 51 501q45 221 117 391h-299q-88 -172 -142 -378q-66 -254 -65 -514z" />
<glyph unicode=")" horiz-adv-x="645" d="M-37 -348l4 16q80 172 129 391q57 256 58 519q0 262 -58 518q-49 219 -129 391q-4 10 -1 22.5t24 12.5h352q16 0 23 -13q98 -176 157 -393q72 -262 72 -538t-72 -539q-59 -217 -157 -393q-8 -14 -23 -15h-352q-27 0 -27 21zM29 -317h297q92 172 149 380q68 251 68 515 q0 266 -66 512q-55 207 -149 380h-299q76 -174 126 -405t50 -487q0 -254 -50.5 -487.5t-125.5 -407.5z" />
<glyph unicode="*" horiz-adv-x="948" d="M12 1069l70 213q10 25 33 16l225 -73v237q0 25 25 25h225q27 0 26 -25v-235l224 71q23 8 32 -16l70 -213q8 -23 -16 -33l-228 -73l142 -189q6 -10 6 -16q0 -8 -12 -19l-183 -135q-10 -6 -16 -6q-8 0 -19 12l-139 195l-139 -195q-10 -12 -19 -12q-6 0 -16 6l-182 135 q-12 10 -12 19q0 6 6 16l141 189l-227 73q-25 10 -17 33zM70 1077l235 -76q18 -6 19 -20q0 -8 -7 -18l-147 -199l141 -105l146 203q10 14 20 15q10 0 21 -15l145 -203l141 107l-147 197q-6 10 -6 18q0 14 18 20l236 76l-54 164l-233 -76q-33 -10 -33 25v246h-174v-246 q0 -35 -35 -25l-233 76z" />
<glyph unicode="+" horiz-adv-x="1228" d="M74 365v311q0 25 24 24h336v334q0 25 25 25h311q27 0 27 -25v-334h333q27 0 27 -24v-311q0 -27 -27 -27h-333v-338q0 -27 -27 -27h-311q-25 0 -25 27v338h-336q-25 0 -24 27zM125 389h334q27 0 26 -24v-340h260v340q0 25 25 24h336v260h-336q-25 0 -25 27v332h-260v-332 q0 -27 -26 -27h-334v-260z" />
<glyph unicode="," horiz-adv-x="684" d="M104 0v406q0 25 25 24h426q27 0 27 -24v-318q0 -229 -105 -352q-115 -133 -348 -133q-25 0 -25 26v178q0 25 25 25q51 0 98 42t58 99h-156q-25 0 -25 27zM156 25h155q27 0 27 -25q0 -78 -54.5 -141.5t-127.5 -75.5v-129q190 0 286 123q88 112 88 311v291h-374v-354z" />
<glyph unicode="-" horiz-adv-x="833" d="M72 381v334q0 25 24 24h647q27 0 27 -24v-334q0 -27 -27 -27h-647q-25 0 -24 27zM123 406h596v282h-596v-282z" />
<glyph unicode="." horiz-adv-x="684" d="M104 0v406q0 25 25 24h422q27 0 27 -24v-406q0 -27 -27 -27h-422q-25 0 -25 27zM156 25h370v354h-370v-354z" />
<glyph unicode="/" horiz-adv-x="872" d="M-27 -27l574 1532q6 16 24 17h310q36 0 24 -33l-573 -1532q-8 -18 -25 -18h-309q-37 0 -25 34zM35 -10h254l555 1480h-254z" />
<glyph unicode="0" d="M53 713q0 338 173 545.5t458 207.5t459 -207.5t174 -545.5t-174 -547t-461 -209q-285 0 -457 209t-172 547zM104 713q0 -315 158 -510t420 -195q264 0 424 195t160 510t-159 508.5t-423 193.5q-262 0 -421 -193.5t-159 -508.5zM442 713q0 221 56.5 329.5t183.5 108.5 q129 0 187.5 -108.5t58.5 -329.5t-58.5 -331t-185.5 -110q-129 0 -185.5 108.5t-56.5 332.5zM494 713q0 -197 42 -293t148 -96q104 0 148.5 97t44.5 292q0 197 -43 292t-152 95q-102 0 -145 -96.5t-43 -290.5z" />
<glyph unicode="1" d="M213 821v295q0 25 25 25q186 0 292.5 73.5t106.5 212.5q0 23 25 23h335q27 0 27 -25v-1425q0 -27 -27 -27h-426q-25 0 -24 27v795h-309q-25 0 -25 26zM264 846h307q27 0 27 -25v-796h375v1374h-289q-16 -147 -122.5 -228t-297.5 -81v-244z" />
<glyph unicode="2" d="M43 0q0 240 135 403q111 135 387 295q180 109 193 117q90 68 90 139q0 68 -37 103t-104 35q-104 0 -149.5 -69t-45.5 -198q0 -27 -27 -26h-389q-25 0 -24 26v62q0 264 172 421.5t473 157.5q285 0 440.5 -124.5t155.5 -356.5q0 -117 -50.5 -212t-127.5 -161 q-68 -55 -164 -114q-61 -39 -217 -125h553q27 0 26 -25v-348q0 -27 -26 -27h-1239q-25 0 -25 27zM94 25h1188v297h-625q-31 0 -30 24q0 14 18 25q135 76 273 151q96 57 184 131q68 55 114 141.5t46 190.5q0 209 -142.5 319.5t-402.5 110.5q-276 0 -435 -142.5t-159 -385.5 v-37h338q0 143 59.5 218t186.5 75q193 0 192 -189q0 -96 -141 -196q-39 -27 -168 -105q-258 -150 -361 -266q-135 -154 -135 -362z" />
<glyph unicode="3" d="M45 541q0 25 25 24h389q27 0 26 -24q0 -104 50.5 -155.5t142.5 -51.5q172 0 172 129q0 72 -44 99.5t-128 27.5l-111 -10q-27 -2 -26 24v279q0 27 26 24l111 -10q86 0 131 24.5t45 84.5q0 45 -44 70.5t-116 25.5q-82 0 -127 -41t-45 -111q0 -27 -26 -26h-385q-25 0 -25 26 q0 236 171 376t454 140q240 0 405.5 -114.5t165.5 -276.5q0 -115 -35 -192.5t-112 -114.5q92 -39 143 -119.5t51 -197.5q0 -225 -173 -359.5t-458 -134.5q-305 0 -469 129q-184 145 -184 455zM96 514q0 -266 174 -393q154 -113 428 -113q260 0 420 120t160 323 q0 121 -64.5 197.5t-173.5 92.5q-25 4 -24 25q0 20 24 25q102 16 150 94q41 70 41 190q0 143 -151.5 241.5t-368.5 98.5q-254 0 -414 -117.5t-160 -322.5h336q0 80 59.5 129t161.5 49q96 0 153.5 -41t57.5 -106q0 -82 -59.5 -120t-171.5 -38l-82 8v-225l84 8q109 0 162 -35 q63 -43 63 -141q0 -180 -223 -180q-113 0 -174 53q-70 59 -70 178h-338z" />
<glyph unicode="4" d="M37 283v385l6 16l651 758l19 8h407q27 0 27 -25v-770h166q27 0 26 -24v-348q0 -27 -26 -27h-166v-256q0 -27 -27 -27h-426q-25 0 -24 27v256h-609q-25 0 -24 27zM88 307h606q27 0 27 -24v-258h375v258q0 25 24 24h168v297h-168q-25 0 -24 27v768h-373l-635 -737v-355z M317 627q0 10 11 20l350 402q12 12 24 12q21 0 21 -29l-2 -401q0 -27 -27 -27h-348q-29 0 -29 23zM399 655h271l2 312z" />
<glyph unicode="5" d="M8 449q0 25 25 24h403q18 0 25 -18q33 -123 194 -123q80 0 136.5 48t56.5 118q0 80 -50 126t-134 46q-66 0 -110 -17.5t-73 -62.5q-8 -12 -20 -12h-381q-31 0 -25 30l148 822q2 20 24 20h979q27 0 27 -25v-348q0 -27 -27 -26h-643l-26 -117q53 29 123.5 44t150.5 15 q233 0 364.5 -130.5t131.5 -366.5q0 -248 -178.5 -393.5t-475.5 -145.5q-303 0 -474 129t-171 363zM59 422q0 -197 161 -305.5t433 -108.5q274 0 438 130.5t164 357.5q0 209 -118.5 327.5t-325.5 118.5q-96 0 -172 -20.5t-123 -65.5q-10 -10 -22 -10q-27 0 -21 35l45 202 q4 18 25 19h639v297h-934l-137 -770h335q72 92 218 92q109 0 172 -59.5t63 -163.5q0 -92 -70.5 -154.5t-173.5 -62.5q-190 0 -237 141h-359z" />
<glyph unicode="6" d="M63 709q0 319 166 528q182 229 504 229q231 0 363 -86q154 -100 196 -331q6 -31 -24 -31h-375q-14 0 -23 16q-25 53 -58.5 69.5t-84.5 16.5q-100 0 -164 -88q-27 -39 -47 -110q104 68 289 67q225 0 363.5 -132t138.5 -349q0 -256 -163 -403.5t-446 -147.5 q-299 0 -460 182q-174 195 -175 570zM115 709q0 -348 157 -529q152 -172 426 -172q260 0 408.5 132t148.5 368q0 193 -124.5 311.5t-325.5 118.5q-168 0 -262 -59l-49 -41q-10 -8 -21 -9q-25 0 -20 31q18 127 69 201q74 111 205 110q68 0 109 -19t73 -83h328 q-43 190 -180 274q-119 72 -324 72q-297 0 -465 -215q-154 -197 -153 -491zM467 504q4 35 15.5 65.5t37.5 63.5q59 84 178 84q96 0 165 -60.5t69 -146.5q0 -100 -66.5 -164.5t-169.5 -64.5q-137 0 -196 114q-16 35 -33 109zM516 508q16 -68 29 -88q45 -88 151 -88 q80 0 132.5 50t52.5 128q0 66 -53.5 111t-129.5 45q-47 0 -80.5 -14.5t-56.5 -47.5q-37 -53 -45 -96z" />
<glyph unicode="7" d="M109 1077v348q0 25 24 25h1098q27 0 26 -25v-333l-8 -19q-225 -219 -322.5 -474t-97.5 -599q0 -27 -26 -27h-453q-25 0 -24 27q0 227 96 483q113 303 338 568h-627q-25 0 -24 26zM160 1102h655q29 0 29 -21q0 -10 -10 -20q-225 -254 -349 -553q-109 -264 -108 -483h401 q0 340 99.5 597t328.5 482v295h-1046v-297z" />
<glyph unicode="8" d="M25 438q0 123 58 202t169 114q-78 39 -121 112.5t-43 186.5q0 193 160 303t434 110q270 0 437 -113.5t167 -299.5q0 -98 -43 -177t-125 -120q106 -35 164.5 -120t58.5 -198q0 -219 -178 -350t-481 -131q-311 0 -484 125t-173 356zM76 438q0 -207 160.5 -318.5 t445.5 -111.5q274 0 441 115.5t167 314.5q0 115 -72.5 194t-197.5 93q-27 4 -27 25q0 20 25 24q100 18 158.5 97t58.5 182q0 168 -151.5 265t-401.5 97t-396.5 -94t-146.5 -268q0 -119 57.5 -189.5t155.5 -89.5q25 -6 25 -24q0 -20 -25 -25q-133 -18 -204.5 -88t-71.5 -199z M430 432q0 213 256 213q252 0 252 -213q0 -82 -67.5 -131t-186.5 -49q-121 0 -187.5 47t-66.5 133zM453 1016q0 178 229 178q240 0 240 -178q0 -182 -238 -182q-111 0 -171 48t-60 134zM481 432q0 -61 54.5 -95t148.5 -34t148.5 33t54.5 96q0 162 -201 162q-205 0 -205 -162 zM504 1016q0 -131 180 -131q88 0 137 32.5t49 98.5q0 68 -47 97.5t-141 29.5q-178 0 -178 -127z" />
<glyph unicode="9" d="M57 915q0 244 170 397.5t443 153.5q299 0 465 -182q176 -192 176 -567q0 -322 -174 -533q-188 -227 -504 -227q-223 0 -361 90q-158 104 -200 324q-6 29 24 28h375q18 0 25 -16q16 -43 52 -61.5t85 -18.5q100 0 166 90q33 43 51 117q-121 -80 -287 -80q-231 0 -368.5 133 t-137.5 352zM109 915q0 -197 122.5 -315.5t331.5 -118.5q166 0 275 86l34 27q12 8 19 8q25 0 20 -33q-18 -133 -71 -204q-76 -113 -207 -113q-59 0 -106.5 22.5t-71.5 73.5h-328q45 -178 188 -264q125 -76 318 -76q291 0 465 211q162 197 162 498q0 346 -157 522t-433 176 q-248 0 -404.5 -138t-156.5 -362zM434 920q0 98 66.5 160.5t169.5 62.5q133 0 192 -115q10 -20 20.5 -60.5t14.5 -60.5q0 -25 -9 -49t-32 -63q-53 -92 -194 -93q-92 0 -160 66t-68 152zM485 920q0 -66 52.5 -116t124.5 -50q109 0 149 65q8 16 20.5 38.5t16.5 45.5 q-16 74 -31 101q-45 88 -147 88q-78 0 -131.5 -49.5t-53.5 -122.5z" />
<glyph unicode=":" horiz-adv-x="684" d="M104 0v406q0 25 25 24h422q27 0 27 -24v-406q0 -27 -27 -27h-422q-25 0 -25 27zM104 657v406q0 25 25 24h422q27 0 27 -24v-406q0 -27 -27 -26h-422q-25 0 -25 26zM156 25h370v354h-370v-354zM156 682h370v354h-370v-354z" />
<glyph unicode=";" horiz-adv-x="684" d="M104 0v406q0 25 25 24h426q27 0 27 -24v-318q0 -229 -105 -352q-115 -133 -348 -133q-25 0 -25 26v178q0 25 25 25q51 0 98 42t58 99h-156q-25 0 -25 27zM104 657v406q0 25 25 24h422q27 0 27 -24v-406q0 -27 -27 -26h-422q-25 0 -25 26zM156 25h155q27 0 27 -25 q0 -78 -54.5 -141.5t-127.5 -75.5v-129q190 0 286 123q88 112 88 311v291h-374v-354zM156 682h370v354h-370v-354z" />
<glyph unicode="&#x3c;" horiz-adv-x="1228" d="M74 387v258q0 18 14 25l1032 403q37 14 37 -24v-330q0 -16 -18 -25l-492 -178l492 -178q18 -8 18 -25v-329q0 -39 -37 -25l-1032 403q-14 6 -14 25zM125 406l981 -383v272l-543 197q-20 6 -20 24q0 16 20 25l543 196v273l-981 -383v-221z" />
<glyph unicode="=" horiz-adv-x="1228" d="M74 113v311q0 25 24 25h1032q27 0 27 -25v-311q0 -27 -27 -27h-1032q-25 0 -24 27zM74 608v312q0 25 24 24h1032q27 0 27 -24v-312q0 -27 -27 -26h-1032q-25 0 -24 26zM125 137h981v260h-981v-260zM125 633h981v260h-981v-260z" />
<glyph unicode="&#x3e;" horiz-adv-x="1228" d="M74 -16v329q0 18 16 25l494 178l-494 178q-16 6 -16 25v330q0 37 35 24l1032 -403q16 -6 16 -25v-258q0 -18 -16 -25l-1032 -403q-35 -12 -35 25zM125 23l981 383v221l-981 383v-273l543 -196q23 -10 22 -25q0 -18 -22 -24l-543 -197v-272z" />
<glyph unicode="?" horiz-adv-x="1175" d="M8 975q0 246 163 396.5t437 150.5q256 0 414 -140q145 -129 145 -315q0 -86 -24.5 -150.5t-67.5 -107.5q-27 -27 -74 -55.5t-112 -57.5q-113 -51 -113 -172q0 -27 -26 -26h-383q-25 0 -25 26q0 121 21.5 203t70.5 129q23 23 60.5 46.5t93.5 45.5q90 41 90 94q0 80 -88 80 q-55 0 -79 -33.5t-24 -113.5q0 -27 -26 -27h-428q-25 0 -25 27zM59 999h377q0 92 39 133.5t115 41.5q139 0 139 -132q0 -88 -121 -139q-53 -25 -87 -45t-50 -39q-41 -37 -59.5 -105.5t-18.5 -164.5h332q12 135 144 194.5t169 102.5q45 45 61.5 106.5t16.5 114.5 q0 166 -133 281q-143 123 -375 122q-244 0 -396.5 -130t-152.5 -341zM324 0v406q0 25 24 24h422q27 0 27 -24v-406q0 -27 -27 -27h-422q-25 0 -24 27zM375 25h370v354h-370v-354z" />
<glyph unicode="@" horiz-adv-x="1638" d="M27 739q0 315 242.5 550t586.5 235q326 0 543 -195t217 -463q0 -174 -96.5 -324.5t-241.5 -228.5h219q29 0 29 -20q0 -6 -6 -17q-68 -125 -242 -223q-197 -111 -406 -110q-367 0 -610 239q-236 231 -235 557zM78 739q0 -307 221 -522q229 -223 573 -223q176 0 347 86 q150 76 229 182h-184q-59 -47 -172 -82t-246 -35q-244 0 -424 164q-188 172 -189 422q0 248 181.5 419t439.5 171q231 0 391 -132t160 -312q0 -162 -67.5 -287t-133.5 -125l-30 14q-29 16 -29 58l84 532h-125l-17 -57q-6 -23 -24 -23q-12 0 -23 19q-25 57 -85 79.5 t-144 22.5q-180 0 -281.5 -116.5t-101.5 -293.5q0 -166 90 -260t223 -94q63 0 82 2q61 8 90 41q12 12 25 12q14 0 22.5 -31.5t33 -50t53.5 -18.5q193 0 355.5 171t162.5 394q0 250 -203 428.5t-506 178.5q-322 0 -550 -220.5t-228 -513.5zM285 731q0 -227 169 -380.5 t392 -153.5q109 0 199 21.5t155 60.5q-80 -29 -153 -29q-35 0 -69 18.5t-54 59.5q-25 -18 -59 -25.5t-81 -7.5h-43q-154 0 -254 102q-111 113 -110 303q0 195 112 324q121 137 322 137q84 0 143.5 -18.5t100.5 -65.5l6 25q6 18 24 18h160q-70 70 -171 110t-220 40 q-236 0 -402.5 -157t-166.5 -382zM655 725q0 190 183 190q76 0 128 -54t52 -130t-41 -123q-53 -61 -162 -61q-66 0 -113 45t-47 133zM707 725q0 -61 30.5 -94t77.5 -33q82 0 121 43q31 35 31 90q0 53 -38 93t-91 40q-131 0 -131 -139zM1194 532l4 -8l19 -10q49 10 93 119 t44 244q0 106 -72 200z" />
<glyph unicode="A" horiz-adv-x="1478" d="M-39 8l535 1462q6 16 24 17h441q18 0 24 -17l531 -1462q3 -9 3 -15q0 -20 -28 -20h-469q-18 0 -25 19l-55 190h-422l-59 -190q-6 -18 -25 -19h-450q-28 0 -28 20q0 6 3 15zM23 25h395l59 192q6 16 25 16h459q18 0 24 -16l57 -192h412l-512 1411h-403zM573 530l144 457 q6 23 24 23t25 -25l131 -457q2 -7 2 -13q0 -19 -25 -19h-2h-274q-27 0 -27 21q0 5 2 13zM633 547h207l-99 344z" />
<glyph unicode="B" horiz-adv-x="1517" d="M94 0v1462q0 25 25 25h813q219 0 348 -104.5t129 -286.5q0 -96 -40 -167t-107 -116q100 -45 162.5 -137t62.5 -223q0 -219 -152.5 -349.5t-412.5 -130.5h-803q-25 0 -25 27zM145 25h777q233 0 373.5 115.5t140.5 312.5q0 125 -70 214t-170 117q-23 6 -22 25q0 12 18 22 q78 37 122 100.5t44 164.5q0 160 -115 250t-311 90h-787v-1411zM545 348v273q0 25 24 24h281q184 0 184 -160q0 -78 -51 -120.5t-135 -42.5h-279q-25 0 -24 26zM545 893v221q0 25 24 25h238q176 0 176 -123q0 -80 -41 -115t-137 -35h-236q-25 0 -24 27zM596 373h252h2 q133 0 133 112q0 57 -34 83t-99 26h-254v-221zM596 918h209q68 0 97.5 21.5t29.5 76.5q0 39 -32 55t-93 16h-211v-169z" />
<glyph unicode="C" horiz-adv-x="1554" d="M51 727q0 362 208 578.5t554 216.5q305 0 492 -148q196 -155 196 -425q0 -38 -4 -48t-20 -10h-441q-20 0 -24 22q-12 80 -64 134q-57 59 -145 59q-125 0 -187.5 -98.5t-62.5 -280.5q0 -176 64.5 -274.5t189.5 -98.5q94 0 147 68q47 59 56 153q4 23 24 23h445q26 0 26 -25 q0 -260 -192 -444q-200 -192 -497 -192h-3q-344 0 -553 217t-209 573zM102 727q0 -334 195 -536.5t516 -202.5q272 0 456.5 164t184.5 395h-397q-14 -109 -74 -172q-66 -72 -176 -72q-145 0 -225 111.5t-80 312.5q0 205 77.5 317.5t223.5 112.5q102 0 169.5 -63.5 t84.5 -151.5h391q-41 260 -204 394t-431 134q-324 0 -517.5 -201.5t-193.5 -541.5z" />
<glyph unicode="D" horiz-adv-x="1593" d="M94 0v1462q0 25 25 25h739q319 0 502.5 -200t183.5 -558q0 -362 -198.5 -559t-575.5 -197h-651q-25 0 -25 27zM145 25h625q352 0 537.5 183t185.5 521q0 334 -168 520.5t-467 186.5h-713v-1411zM545 375v712q0 25 24 25h133q186 0 288 -95.5t102 -275.5q0 -393 -367 -393 h-156q-25 0 -24 27zM596 399h129q315 0 315 342q0 154 -89 237t-249 83h-106v-662z" />
<glyph unicode="E" horiz-adv-x="1441" d="M94 0v1462q0 25 25 25h1208q27 0 27 -25v-375q0 -27 -27 -26h-731v-133h661q27 0 27 -25v-346q0 -27 -27 -27h-661v-131h756q27 0 26 -24v-375q0 -27 -26 -27h-1233q-25 0 -25 27zM145 25h1182v323h-758q-25 0 -24 27v182q0 25 24 25h664v295h-664q-25 0 -24 26v184 q0 25 24 25h734v324h-1158v-1411z" />
<glyph unicode="F" horiz-adv-x="1290" d="M94 0v1462q0 25 25 25h1130q27 0 27 -25v-375q0 -27 -27 -26h-653v-133h557q27 0 27 -25v-346q0 -27 -27 -27h-557v-530q0 -27 -27 -27h-450q-25 0 -25 27zM145 25h400v532q0 25 24 25h559v295h-559q-25 0 -24 26v184q0 25 24 25h656v324h-1080v-1411z" />
<glyph unicode="G" horiz-adv-x="1593" d="M49 723q0 352 209 575.5t541 223.5q283 0 462 -146.5t232 -421.5q6 -31 -25 -30h-432q-20 0 -24 22q-10 68 -61.5 114t-125.5 46q-141 0 -207.5 -95.5t-66.5 -287.5q0 -178 78 -274.5t227 -96.5q72 0 124 32t73 81h-164q-25 0 -25 27v313q0 25 25 24h600q27 0 27 -24 v-805q0 -27 -27 -27h-287q-20 0 -24 25l-9 90q-76 -76 -176 -113.5t-219 -37.5q-322 0 -523.5 218t-201.5 568zM100 723q0 -326 186.5 -530.5t487.5 -204.5q123 0 223.5 44t169.5 134q12 12 25 12q20 0 20 -26l13 -127h239v753h-549v-262h172q29 0 25 -29 q-12 -76 -80.5 -131t-175.5 -55q-172 0 -264 108.5t-92 313.5q0 217 79.5 325.5t245.5 108.5q86 0 149.5 -52t82.5 -130h381q-55 238 -221 366.5t-418 128.5q-307 0 -503 -209.5t-196 -537.5z" />
<glyph unicode="H" horiz-adv-x="1554" d="M92 0v1462q0 25 25 25h450q27 0 27 -25v-483h375v483q0 25 24 25h451q27 0 26 -25v-1462q0 -27 -26 -27h-451q-25 0 -24 27v553h-375v-553q0 -27 -27 -27h-450q-25 0 -25 27zM143 25h400v555q0 25 24 24h426q27 0 27 -24v-555h399v1411h-399v-482q0 -27 -27 -26h-426 q-25 0 -24 26v482h-400v-1411z" />
<glyph unicode="I" horiz-adv-x="681" d="M92 0v1462q0 25 25 25h450q27 0 27 -25v-1462q0 -27 -27 -27h-450q-25 0 -25 27zM143 25h400v1411h-400v-1411z" />
<glyph unicode="J" horiz-adv-x="1251" d="M29 489v125q0 25 24 25h406q27 0 26 -25v-108q0 -98 17.5 -133t72.5 -35q53 0 70 43t17 147v934q0 25 24 25h451q27 0 26 -25v-938q0 -309 -147 -452q-137 -133 -412 -133q-279 0 -427 138t-148 412zM80 489q0 -248 134 -373.5t390 -125.5q250 0 373 121q135 130 135 413 v912h-399v-908q0 -129 -31 -185t-107 -56t-108.5 48t-32.5 171v82h-354v-99z" />
<glyph unicode="K" horiz-adv-x="1593" d="M104 0v1462q0 25 25 25h451q27 0 26 -25v-434l359 451l20 8h555q29 0 29 -23q0 -10 -10 -20l-517 -557l603 -873q8 -10 8 -20q0 -20 -29 -21h-559q-14 0 -23 13l-342 540l-94 -102v-424q0 -27 -26 -27h-451q-25 0 -25 27zM156 25h399v407l6 17l125 137q12 12 21 12 q10 0 20 -14l354 -559h496l-588 852q-6 10 -6 16q0 4 8 16l490 527h-484l-397 -500q-8 -14 -22 -14q-23 0 -23 30v484h-399v-1411z" />
<glyph unicode="L" horiz-adv-x="1290" d="M94 0v1462q0 25 25 25h450q27 0 27 -25v-1063h618q27 0 27 -24v-375q0 -27 -27 -27h-1095q-25 0 -25 27zM145 25h1045v323h-621q-25 0 -24 27v1061h-400v-1411z" />
<glyph unicode="M" horiz-adv-x="1933" d="M90 0v1462q0 25 25 25h641q20 0 24 -19l187 -768l186 768q4 18 25 19h643q27 0 26 -25v-1462q0 -27 -26 -27h-428q-25 0 -25 27v764l-209 -770q-6 -20 -24 -21h-336q-18 0 -25 21l-207 764v-758q0 -27 -26 -27h-426q-25 0 -25 27zM141 25h375v927q0 27 25 27q18 0 24 -21 l254 -933h295l254 933q6 23 27 23q25 0 24 -29v-927h377v1411h-598l-207 -848q-6 -23 -24 -23t-25 23l-207 848h-594v-1411z" />
<glyph unicode="N" horiz-adv-x="1554" d="M94 0v1462q0 25 25 25h461q16 0 22 -12l381 -701v688q0 25 25 25h426q27 0 26 -25v-1462q0 -27 -26 -27h-437q-14 0 -22 15l-404 719v-707q0 -27 -26 -27h-426q-25 0 -25 27zM145 25h375v782q0 29 23 29q14 0 24 -17l447 -794h395v1411h-375v-760q0 -31 -24 -31 q-14 0 -25 19l-420 772h-420v-1411z" />
<glyph unicode="O" horiz-adv-x="1630" d="M49 729q0 358 209 575.5t555 217.5q344 0 555 -217.5t211 -575.5q0 -356 -212 -574t-554 -218q-344 0 -554 218t-210 574zM100 729q0 -334 196 -537.5t517 -203.5q322 0 518.5 204.5t196.5 536.5t-196.5 536.5t-518.5 204.5q-324 0 -518.5 -202.5t-194.5 -538.5zM500 729 q0 205 81 316.5t232 111.5q150 0 232.5 -111.5t82.5 -316.5q0 -201 -82.5 -314.5t-232.5 -113.5q-152 0 -232.5 111.5t-80.5 316.5zM551 729q0 -176 66.5 -276.5t195.5 -100.5q127 0 195.5 100.5t68.5 276.5q0 178 -67.5 277.5t-196.5 99.5t-195.5 -98.5t-66.5 -278.5z" />
<glyph unicode="P" horiz-adv-x="1441" d="M92 0v1462q0 25 25 25h762q246 0 401.5 -145.5t155.5 -372.5q0 -266 -156 -409.5t-446 -143.5h-240v-416q0 -27 -27 -27h-450q-25 0 -25 27zM143 25h400v417q0 25 24 25h267q266 0 408 130t142 372q0 203 -142 335t-363 132h-736v-1411zM543 791v296q0 25 24 25h211 q127 0 180.5 -36t53.5 -132q0 -180 -250 -180h-195q-25 0 -24 27zM594 815h168q102 0 150.5 28.5t48.5 100.5q0 70 -41 93.5t-142 23.5h-184v-246z" />
<glyph unicode="Q" horiz-adv-x="1630" d="M49 729q0 358 209 575.5t555 217.5q344 0 555 -217.5t211 -575.5q0 -309 -158 -508l158 -162q10 -10 10 -18t-10 -18l-203 -201q-10 -10 -18 -10t-19 10l-178 184q-131 -69 -342 -69h-6q-344 0 -554 218t-210 574zM100 729q0 -334 196 -537.5t517 -203.5q211 0 340 73 q16 10 31 -4l174 -180l166 164l-156 160q-8 8 -8 16q0 6 8 19q160 188 160 493q0 332 -196.5 536.5t-518.5 204.5q-324 0 -518.5 -202.5t-194.5 -538.5zM500 729q0 205 81 316.5t232 111.5q150 0 232.5 -111.5t82.5 -316.5q0 -123 -28 -203q-6 -20 -23 -20q-10 0 -20 12 l-103 107l-166 -160l109 -113q10 -10 10 -20q0 -16 -25.5 -23.5t-68.5 -7.5q-152 0 -232.5 111.5t-80.5 316.5zM551 729q0 -176 66.5 -276.5t195.5 -100.5h10l-90 94q-8 8 -8 19q0 10 8 18l203 197q8 8 18 8t19 -8l90 -94q14 55 14 143q0 178 -67.5 277.5t-196.5 99.5 t-195.5 -98.5t-66.5 -278.5z" />
<glyph unicode="R" horiz-adv-x="1517" d="M94 0v1462q0 25 25 25h844q236 0 377 -121t141 -326q0 -121 -50.5 -216t-138.5 -146q184 -119 185 -442q0 -126 43 -226q5 -11 5 -18q0 -19 -28 -19h-450q-16 0 -25 19q-25 72 -33 128t-8 150q-10 115 -49 164t-121 49h-215v-483q0 -27 -27 -27h-450q-25 0 -25 27z M145 25h400v485q0 25 24 25h242q104 0 161.5 -62.5t57.5 -198.5q0 -109 12 -172q4 -25 23 -77h395q-33 92 -33 208q0 162 -51 270.5t-153 149.5q-20 8 -21 25q0 14 23 24q92 35 148.5 126.5t56.5 211.5q0 182 -127 289t-340 107h-818v-1411zM545 823v291q0 25 24 25h213 q248 0 248 -166q0 -176 -223 -176h-238q-25 0 -24 26zM596 848h211q172 0 172 125q0 61 -48 87.5t-149 26.5h-186v-239z" />
<glyph unicode="S" horiz-adv-x="1366" d="M0 489q0 25 25 25h450q27 0 27 -25q0 -82 39 -122q51 -55 172 -56q74 0 116.5 30t42.5 85q0 51 -120 88q-49 16 -246 68q-244 63 -346.5 163.5t-102.5 270.5q0 231 170 368.5t457 137.5q297 0 467 -142q162 -135 162 -360q0 -27 -27 -27h-424q-25 0 -24 27 q0 70 -46.5 98.5t-121.5 28.5q-61 0 -98 -17.5t-37 -54.5q0 -47 88 -80q66 -25 227 -57q266 -57 385 -156q139 -114 139 -323q0 -244 -187.5 -383t-510.5 -139q-309 0 -492.5 150.5t-183.5 401.5zM51 463q0 -215 173 -345t452 -130q299 0 473 124t174 347q0 188 -129 291 q-106 84 -354 139q-164 31 -260.5 79t-96.5 107q0 57 49.5 90t137.5 33q92 0 150.5 -36t66.5 -118h375q0 193 -156 309.5t-422 116.5q-264 0 -419.5 -120.5t-155.5 -333.5q0 -152 93 -239t326.5 -148.5t314.5 -104.5t81 -98q0 -78 -56.5 -122t-154.5 -44q-141 0 -207 62 q-55 51 -55 141h-400z" />
<glyph unicode="T" d="M25 1087v375q0 25 24 25h1270q27 0 27 -25v-375q0 -27 -27 -26h-383v-1061q0 -27 -27 -27h-450q-25 0 -25 27v1061h-385q-25 0 -24 26zM76 1112h383q27 0 26 -25v-1062h400v1062q0 25 24 25h385v324h-1218v-324z" />
<glyph unicode="U" horiz-adv-x="1554" d="M86 563v899q0 25 25 25h450q27 0 27 -25v-827q0 -147 43 -215t149 -68q104 0 147.5 68.5t43.5 214.5v827q0 25 24 25h451q27 0 27 -25v-899q0 -309 -177.5 -467.5t-517.5 -158.5q-692 0 -692 626zM137 563q0 -575 641 -575q313 0 478 146t165 429v873h-399v-801 q0 -174 -56.5 -254t-185.5 -80q-131 0 -187 79t-56 255v801h-400v-873z" />
<glyph unicode="V" horiz-adv-x="1327" d="M-61 1454q-2 8 -2 13q0 20 26 20h455q18 0 24 -19l217 -802l213 802q6 18 25 19h463q26 0 26 -20q0 -6 -2 -13l-456 -1462q-6 -18 -25 -19h-504q-18 0 -24 19zM-2 1436l422 -1411h463l442 1411h-410l-231 -875q-6 -23 -25 -22q-18 0 -24 22l-236 875h-401z" />
<glyph unicode="W" horiz-adv-x="1972" d="M-41 1456q-2 7 -2 12q0 19 27 19h442q20 0 25 -21l155 -788l154 788q2 20 24 21h398q23 0 24 -21l150 -798l160 798q4 20 24 21h440q27 0 27 -19q0 -5 -2 -12l-406 -1462q-6 -20 -24 -21h-438q-20 0 -25 23l-135 762l-131 -762q-4 -23 -25 -23h-440q-18 0 -25 21z M16 1436l385 -1411h400l151 882q6 25 25 25q20 0 24 -25l156 -882h399l392 1411h-387l-181 -904q-2 -23 -24 -22q-18 0 -25 22l-170 904h-356l-174 -891q-2 -23 -25 -23q-18 0 -24 23l-176 891h-390z" />
<glyph unicode="X" horiz-adv-x="1517" d="M-49 14l522 764l-475 670q-6 10 -6 18q0 20 26 21h529q16 0 22 -12l203 -357l199 357q6 12 22 12h500q27 0 27 -21q0 -8 -7 -18l-462 -674l516 -760q6 -12 6 -20q0 -20 -27 -21h-542q-14 0 -23 15l-231 397l-240 -397q-8 -14 -23 -15h-516q-26 0 -26 20q0 11 6 21zM18 25 h455l254 424q12 16 23 16q12 0 22 -16l248 -424h479l-500 735q-10 14 0 28l445 648h-436l-213 -383q-8 -16 -23 -17q-14 0 -22 17l-218 383h-464l456 -643q10 -14 0 -29z" />
<glyph unicode="Y" horiz-adv-x="1366" d="M-84 1450q-6 12 -6 20q0 17 29 17h495q14 0 23 -14l223 -490l235 490q8 14 23 14h489q29 0 29 -21q0 -6 -6 -16l-520 -915v-535q0 -27 -27 -27h-450q-25 0 -25 27v530zM-16 1436l493 -891l2 -520h400v520l503 891h-430l-250 -523q-10 -18 -22 -18t-23 18l-237 523h-436z " />
<glyph unicode="Z" horiz-adv-x="1402" d="M25 0v354q4 16 6 19l639 688h-582q-25 0 -25 26v375q0 25 25 25h1237q27 0 27 -25v-325l-9 -17l-651 -721h664q27 0 26 -24v-375q0 -27 -26 -27h-1307q-25 0 -24 27zM76 25h1255v323h-694q-29 0 -29 23q0 10 10 20l682 756v289h-1185v-324h614q29 0 29 -22q0 -10 -10 -21 l-672 -725v-319z" />
<glyph unicode="[" horiz-adv-x="833" d="M53 -342v1839q0 25 25 25h680q27 0 26 -25v-313q0 -27 -26 -27l-291 2v-1165l291 2q27 0 26 -25v-313q0 -27 -26 -27h-680q-25 0 -25 27zM104 -317h629v262l-293 -2q-25 0 -24 26v1217q0 25 24 24l293 -2v262h-629v-1787z" />
<glyph unicode="\" horiz-adv-x="872" d="M-35 1489q-12 33 25 33h311q18 0 25 -17l573 -1534q12 -35 -25 -34h-311q-16 0 -24 18zM27 1470l555 -1482h256l-555 1482h-256z" />
<glyph unicode="]" horiz-adv-x="833" d="M53 -29q0 25 25 25l293 -2v1165l-293 -2q-25 0 -25 27v313q0 25 25 25h680q27 0 26 -25v-1839q0 -27 -26 -27h-680q-25 0 -25 27v313zM104 -55v-262h629v1787h-629v-262l291 2q27 0 27 -24v-1217q0 -27 -27 -26z" />
<glyph unicode="^" horiz-adv-x="1228" d="M106 672l5 16l356 748q8 14 22 14h250q14 0 23 -14l356 -748q16 -37 -22 -37h-314q-16 0 -22 17l-146 336l-145 -336q-6 -16 -23 -17h-313q-27 0 -27 21zM172 702h258l162 373q10 18 22 19q16 0 23 -19l162 -373h258l-332 697h-221z" />
<glyph unicode="_" horiz-adv-x="1024" d="M-25 -154q0 25 25 25h1024q27 0 27 -25v-102q0 -27 -27 -27h-1024q-25 0 -25 27v102zM27 -180v-51h972v51h-972z" />
<glyph unicode="`" horiz-adv-x="569" d="M-162 1475q0 20 29 20h428q18 -6 20 -10l203 -305q6 -12 6 -21q0 -20 -26 -20h-277l-16 8l-355 305q-12 10 -12 23zM-63 1444l294 -254h220l-168 254h-346z" />
<glyph unicode="a" horiz-adv-x="1251" d="M25 303q0 133 86 217t235 115q152 14 236 27q155 23 155 82q0 40 -31.5 59.5t-80.5 19.5q-63 0 -93 -24.5t-30 -57.5q0 -27 -27 -26h-377q-25 0 -24 26q0 170 131 267q145 106 438 106q281 0 406 -86t125 -291v-516q0 -76 14.5 -127t32.5 -80q6 -10 6 -20q0 -20 -29 -21 h-414q-20 0 -24 21l-10 55q-119 -102 -328 -102q-193 0 -295 94t-102 262zM76 303q0 -143 89 -224t257 -81q227 0 328 127q8 14 24 14q23 0 23 -30q0 -43 8 -84h352q-12 33 -23.5 87t-11.5 109v516q0 182 -111.5 254t-367.5 72t-387 -79t-131 -218h328q8 45 45 74 q44 34 122 34h5q78 0 120.5 -31.5t42.5 -97.5q0 -80 -239 -124q-96 -18 -191 -35q-135 -29 -208.5 -97.5t-73.5 -185.5zM438 311q0 57 28 85t102.5 47.5t86.5 23.5q61 16 99 37q10 6 18 6q20 0 21 -29v-61q0 -106 -53.5 -170t-147.5 -64q-66 0 -110 38t-44 87zM489 311 q0 -29 30 -51t73 -22q70 0 109.5 50t39.5 132v22q-45 -18 -166 -49q-86 -23 -86 -82z" />
<glyph unicode="b" horiz-adv-x="1327" d="M84 0v1458q0 25 25 25l405 4q27 0 27 -25v-448q45 43 121.5 71.5t154.5 28.5q223 0 348 -153.5t125 -419.5q0 -264 -139 -429t-344 -165q-94 0 -158.5 21.5t-122.5 80.5v-49q0 -27 -26 -27h-391q-25 0 -25 27zM135 25h340v98q0 29 23 29q14 0 22 -15q55 -80 122 -109.5 t165 -29.5q186 0 309 149.5t123 393.5t-110.5 383t-311.5 139q-98 0 -179 -40t-99 -101q-6 -20 -25 -21q-25 0 -25 29v506l-354 -4v-1407zM473 520q0 299 209 299q201 0 201 -287q0 -139 -53.5 -214.5t-157.5 -75.5q-96 0 -147.5 73.5t-51.5 204.5zM524 520 q0 -106 37 -166.5t111 -60.5q80 0 119.5 62t39.5 177q0 117 -35.5 176.5t-113.5 59.5q-158 0 -158 -248z" />
<glyph unicode="c" horiz-adv-x="1251" d="M41 510q0 266 165 435t447 169q227 0 369 -104q156 -117 186 -346q4 -31 -24 -31h-389q-20 0 -25 24q0 57 -32.5 84t-92.5 27q-82 0 -114.5 -62.5t-32.5 -195.5q0 -217 145 -217q47 0 86 32.5t53 102.5q4 20 25 21h385q25 0 25 -22v-7q-31 -221 -188 -347t-386 -126 q-258 0 -430 161.5t-172 401.5zM92 510q0 -219 157 -365.5t394 -146.5q201 0 342 105.5t178 293.5h-336q-23 -80 -72.5 -117.5t-111.5 -37.5q-197 0 -197 268q0 162 46.5 235.5t152.5 73.5q154 0 172 -135h338q-33 193 -169 286t-333 93q-260 0 -410.5 -154.5t-150.5 -398.5 z" />
<glyph unicode="d" horiz-adv-x="1327" d="M39 541q0 268 124 420.5t349 152.5q80 0 154.5 -27.5t121.5 -74.5v446q0 25 25 25l406 4q27 0 26 -25v-1462q0 -27 -26 -27h-392q-25 0 -24 27v53q-55 -59 -122 -82.5t-159 -23.5q-227 0 -355 158.5t-128 435.5zM90 541q0 -252 112.5 -397.5t319.5 -145.5q100 0 164 28.5 t121 110.5q12 14 24 15q23 0 23 -29v-98h340v1411l-354 -4v-502q0 -31 -27 -31q-18 0 -25 23q-18 59 -100 100t-176 41q-203 0 -312.5 -138.5t-109.5 -383.5zM442 530q0 289 207 289q104 0 160 -86q47 -73 47 -190q0 -137 -52 -219t-149 -82q-104 0 -158.5 74.5t-54.5 213.5 zM654 293h1q74 0 112 68.5t38 181.5q0 94 -33 153q-41 72 -123 72q-155 0 -155 -235q0 -240 160 -240z" />
<glyph unicode="e" horiz-adv-x="1290" d="M41 528q0 252 167 419t423 167q305 0 464.5 -166t159.5 -477v-31q0 -27 -26 -26h-748q12 -41 17.5 -55.5t17.5 -32.5q47 -68 148 -68q49 0 90 19.5t53 44.5q6 12 22 12h379q37 0 25 -33q-53 -154 -199 -250q-158 -104 -375 -104q-279 0 -448.5 159.5t-169.5 421.5z M92 528q0 -240 155.5 -385t411.5 -145q188 0 321.5 78t188.5 207h-327q-25 -31 -73 -53.5t-105 -22.5q-129 0 -191 90q-16 27 -27.5 60.5t-19.5 78.5q-6 29 25 29h753q0 291 -145.5 444.5t-427.5 153.5q-236 0 -387.5 -151.5t-151.5 -383.5zM430 657q14 72 45 113 q59 84 189 84q88 0 146 -56.5t58 -146.5q0 -26 -24 -26h-2h-387q-26 0 -26 22q0 5 1 10zM487 676h328q-8 55 -51 91t-100 36q-104 0 -148 -62q-16 -23 -29 -65z" />
<glyph unicode="f" horiz-adv-x="796" d="M-10 813v250q0 25 24 24h142q0 217 105.5 308.5t342.5 91.5l197 -8q25 0 24 -25v-272q0 -29 -28 -25l-105 8q-45 0 -62.5 -13t-17.5 -38v-27h179q27 0 26 -24v-250q0 -27 -26 -27h-179v-786q0 -27 -26 -27h-406q-25 0 -24 27v786h-142q-25 0 -24 27zM41 838h139 q27 0 27 -25v-788h354v788q0 25 25 25h180v198h-180q-25 0 -25 27v51q0 41 27 68q34 32 102 32h4l80 -6v222l-172 8q-215 0 -305 -84t-90 -291q0 -27 -27 -27h-139v-198z" />
<glyph unicode="g" horiz-adv-x="1290" d="M20 569q0 246 132.5 394.5t351.5 148.5q174 0 266 -92v45q0 25 25 25h401q27 0 27 -25v-940q0 -266 -148.5 -394t-443.5 -128q-260 0 -408 94q-160 102 -160 299q12 12 25 12h399q14 0 23 -14q18 -39 50 -69.5t69 -30.5q63 0 100 60t37 155v36q-47 -47 -120 -77.5 t-146 -30.5q-219 0 -349.5 144.5t-130.5 387.5zM72 569q0 -217 115.5 -349t312.5 -132q86 0 161.5 41t104.5 109q8 20 27 20q25 0 24 -31v-118q0 -117 -52 -192t-136 -75q-49 0 -88 32t-68 83h-354q31 -154 163 -228.5t349 -74.5q268 0 404 114.5t136 356.5v913h-350v-96 q0 -29 -24 -29q-14 0 -25 19q-31 63 -102.5 96t-165.5 33q-199 0 -315.5 -135t-116.5 -357zM426 580q0 111 53 174t144 63q194 0 194 -254q0 -147 -44 -206.5t-140 -59.5t-151.5 73.5t-55.5 209.5zM477 580q0 -113 38 -172.5t118 -59.5q72 0 102.5 49t30.5 166 q0 203 -143 203q-68 0 -107 -49t-39 -137z" />
<glyph unicode="h" horiz-adv-x="1327" d="M86 0v1458q0 25 25 25l405 4q27 0 27 -25v-454q55 53 128.5 79.5t184.5 26.5q172 0 278.5 -106.5t106.5 -282.5v-725q0 -27 -27 -27h-405q-25 0 -25 27v600q0 72 -23.5 105.5t-82.5 33.5q-68 0 -101.5 -45t-33.5 -94v-600q0 -27 -27 -27h-405q-25 0 -25 27zM137 25h355 v575q0 70 40 123q53 68 146 68q86 0 122 -44.5t36 -146.5v-575h354v700q0 154 -90 246t-244 92q-119 0 -191.5 -35t-127.5 -106q-8 -14 -23 -15q-23 0 -22 31v498l-355 -4v-1407z" />
<glyph unicode="i" horiz-adv-x="645" d="M94 0v1059q0 25 25 24l405 4q27 0 27 -24v-1063q0 -27 -27 -27h-405q-25 0 -25 27zM94 1178v284q0 25 25 25h405q27 0 27 -25v-284q0 -27 -27 -27h-405q-25 0 -25 27zM145 25h355v1011l-355 -4v-1007zM145 1202h355v234h-355v-234z" />
<glyph unicode="j" horiz-adv-x="645" d="M-86 -20q0 25 25 24h75q37 0 58.5 21.5t21.5 78.5v955q0 25 25 24l405 4q27 0 27 -24v-1032q0 -238 -100 -326q-86 -76 -301 -76h-211q-25 0 -25 27v324zM-35 -47v-272h185q186 0 262 65q88 78 88 285v1005l-355 -4v-928q0 -90 -39 -124q-31 -27 -92 -27h-49zM94 1178 v284q0 25 25 25h405q27 0 27 -25v-284q0 -27 -27 -27h-405q-25 0 -25 27zM145 1202h355v234h-355v-234z" />
<glyph unicode="k" horiz-adv-x="1251" d="M94 0v1458q0 25 25 25l405 4q27 0 27 -25v-635l211 252l20 8h459q29 0 29 -22q0 -10 -10 -21l-365 -387l428 -643q6 -12 6 -20q0 -20 -26 -21h-490q-14 0 -22 15l-201 354l-39 -43v-299q0 -27 -27 -27h-405q-25 0 -25 27zM145 25h355v282l6 17l72 77q8 10 20 11 q12 0 20 -15l211 -372h426l-413 622q-6 10 -6 17q0 4 8 16l336 356h-385l-250 -297q-10 -12 -23 -12q-23 0 -22 29v680l-355 -4v-1407z" />
<glyph unicode="l" horiz-adv-x="645" d="M94 0v1458q0 25 25 25l405 4q27 0 27 -25v-1462q0 -27 -27 -27h-405q-25 0 -25 27zM145 25h355v1411l-355 -4v-1407z" />
<glyph unicode="m" horiz-adv-x="1972" d="M84 0v1059q0 25 25 24l391 4q27 0 26 -24v-76q111 127 328 127q94 0 170 -41t119 -104q123 145 350 145q190 0 293.5 -101.5t103.5 -287.5v-725q0 -27 -26 -27h-406q-25 0 -24 27v600q0 74 -25 106.5t-84 32.5q-61 0 -90 -55q-20 -41 -21 -109v-575q0 -27 -26 -27h-406 q-25 0 -24 27v600q0 74 -24.5 106.5t-84.5 32.5q-57 0 -82.5 -44t-25.5 -99v-596q0 -27 -27 -27h-405q-25 0 -25 27zM135 25h354v571q0 78 33 129q41 66 127 66q82 0 121 -46.5t39 -144.5v-575h354v550q0 88 33 144q41 72 129 72q82 0 121 -46.5t39 -144.5v-575h354v700 q0 162 -90 250t-256 88q-229 0 -334 -156q-10 -16 -22 -16t-23 20q-23 61 -94.5 106.5t-165.5 45.5q-127 0 -205 -42t-127 -128q-10 -16 -24 -16q-23 0 -23 28v131l-340 -4v-1007z" />
<glyph unicode="n" horiz-adv-x="1327" d="M86 0v1059q0 25 25 24l391 4q27 0 26 -24v-70q57 57 137 89t191 32q172 0 278.5 -106.5t106.5 -282.5v-725q0 -27 -27 -27h-405q-25 0 -25 27v600q0 72 -23.5 105.5t-82.5 33.5q-68 0 -101.5 -45t-33.5 -94v-600q0 -27 -27 -27h-405q-25 0 -25 27zM137 25h355v575 q0 70 40 123q53 68 146 68q86 0 122 -44.5t36 -146.5v-575h354v700q0 154 -90 246t-244 92q-123 0 -199.5 -39t-134.5 -115q-12 -14 -24 -14q-20 0 -21 29v112l-340 -4v-1007z" />
<glyph unicode="o" horiz-adv-x="1290" d="M41 530q0 272 162 428t442 156q279 0 441.5 -157t162.5 -427q0 -268 -163.5 -425.5t-442.5 -157.5t-440.5 155.5t-161.5 427.5zM92 530q0 -248 148.5 -390t402.5 -142t404.5 144t150.5 388q0 246 -149.5 389.5t-403.5 143.5q-256 0 -404.5 -142.5t-148.5 -390.5zM446 530 q0 289 197 289q201 0 201 -289q0 -288 -200 -288h-1q-98 0 -147.5 73.5t-49.5 214.5zM498 530q0 -117 34.5 -177t110.5 -60q78 0 114 61t36 176q0 117 -36 177.5t-114 60.5q-76 0 -110.5 -61.5t-34.5 -176.5z" />
<glyph unicode="p" horiz-adv-x="1327" d="M86 -344v1403q0 25 25 24l391 4q27 0 26 -24v-53q57 57 123 80.5t156 23.5q225 0 353 -159t128 -435q0 -264 -126 -418.5t-345 -154.5q-80 0 -152.5 27.5t-121.5 74.5v-393q0 -27 -27 -27h-405q-25 0 -25 27zM137 -319h355v454q0 29 24 29q18 0 25 -21q18 -63 97 -104 t179 -41q197 0 308.5 140t111.5 382q0 252 -112.5 397.5t-317.5 145.5q-96 0 -160.5 -28.5t-124.5 -110.5q-8 -14 -22 -15q-23 0 -23 31v96l-340 -4v-1351zM475 539q0 133 51.5 206.5t145.5 73.5q209 0 209 -291q0 -286 -198 -286h-1q-102 0 -154.5 71.5t-52.5 225.5z M526 541q0 -248 156 -248q76 0 111.5 60t35.5 175q0 117 -37.5 178.5t-119.5 61.5q-74 0 -110 -58.5t-36 -168.5z" />
<glyph unicode="q" horiz-adv-x="1327" d="M39 520q0 272 134 433t345 161q94 0 158.5 -21.5t124.5 -78.5v49q0 25 24 24h389q27 0 27 -24v-1407q0 -27 -27 -27h-405q-25 0 -25 27v393q-45 -45 -119.5 -73.5t-156.5 -28.5q-219 0 -344 153.5t-125 419.5zM90 520q0 -242 109.5 -382t308.5 -140q100 0 180 40t96 103 q6 23 27 23q25 0 25 -29v-454h354v1355h-338v-88q0 -31 -25 -30q-14 0 -22 14q-57 76 -122 103.5t-165 27.5q-193 0 -310.5 -146.5t-117.5 -396.5zM446 528q0 291 207 291q96 0 147.5 -71.5t51.5 -202.5q0 -160 -51 -231.5t-158 -71.5q-96 0 -146.5 72.5t-50.5 213.5z M498 528q0 -115 34.5 -175t110.5 -60q158 0 158 252q0 106 -37 164.5t-111 58.5q-80 0 -117.5 -60.5t-37.5 -179.5z" />
<glyph unicode="r" horiz-adv-x="909" d="M86 0v1059q0 25 25 24l389 4q27 0 26 -24v-86q53 74 121 105.5t156 31.5q55 0 85 -5t46 -13.5t16 -22.5v-360q0 -27 -20 -27l-17 4q-31 14 -60.5 19.5t-88.5 5.5q-221 0 -221 -287v-428q0 -27 -27 -27h-405q-25 0 -25 27zM137 25h355v403q0 338 272 338q86 0 135 -16v305 q-18 4 -34.5 6t-61.5 2q-96 0 -160.5 -41t-120.5 -150q-8 -16 -22 -16q-25 0 -25 29v151l-338 -4v-1007z" />
<glyph unicode="s" horiz-adv-x="1175" d="M27 346q0 27 24 27h387q23 0 28 -37t40 -62.5t90 -25.5q51 0 82 15.5t31 51.5q0 47 -122 70t-243 45q-131 35 -205 105q-88 84 -88 217q0 172 143.5 267t380.5 95q256 0 399.5 -90t143.5 -268q0 -29 -24 -29h-369q-25 0 -25 27q0 35 -34.5 59.5t-79.5 24.5 q-47 0 -70.5 -13.5t-23.5 -42.5q0 -33 57 -47q119 -20 239 -43q180 -35 270.5 -121t90.5 -231q0 -182 -149.5 -288.5t-409.5 -106.5q-244 0 -395 96q-168 106 -168 305zM78 322q23 -162 170 -248q133 -78 342 -78q231 0 369.5 91t138.5 253q0 123 -81 197.5t-237 105.5 q-213 41 -276.5 67.5t-63.5 71.5q0 55 34 81t112 26q57 0 104 -33t58 -78h319q-18 141 -147 213t-345 72q-217 0 -345 -79t-128 -232q0 -111 76 -183q61 -57 187.5 -90t263.5 -65q131 -39 131 -99q0 -118 -161 -118h-3q-145 0 -178 125h-340z" />
<glyph unicode="t" horiz-adv-x="833" d="M-10 813v250q0 25 24 24h154v299q0 25 25 25h405q27 0 27 -25v-299h188q27 0 27 -24v-250q0 -27 -27 -27h-188v-356q0 -59 22.5 -81.5t77.5 -22.5l88 4q29 0 29 -25v-305q0 -25 -25 -25l-266 -12q-209 0 -296 81t-87 278v464h-154q-25 0 -24 27zM41 838h152q27 0 26 -25 v-491q0 -170 74 -240t256 -70l242 11v256l-64 -3q-86 0 -120 32t-34 122v383q0 25 25 25h190v198h-190q-25 0 -25 27v297h-354v-297q0 -27 -26 -27h-152v-198z" />
<glyph unicode="u" horiz-adv-x="1327" d="M86 332v731q0 24 23 24h2h405q27 0 27 -24v-588q0 -153 107 -153h1q61 0 97 42t36 130v569q0 24 23 24h2h405q27 0 27 -24v-1063q0 -27 -27 -27h-389q-25 0 -24 27v70q-53 -57 -133 -90t-185 -33q-182 0 -289.5 103.5t-107.5 281.5zM137 332q0 -154 94.5 -244t251.5 -90 q115 0 201 45t119 115q10 18 26 18q23 0 23 -29v-122h338v1011h-354v-542q0 -115 -50.5 -169.5t-134.5 -54.5q-86 0 -122.5 49.5t-36.5 155.5v561h-355v-704z" />
<glyph unicode="v" horiz-adv-x="1138" d="M-43 1055q-2 7 -2 13q0 19 25 19h2h428q18 0 24 -18l141 -559l142 559q6 18 24 18h416h2q25 0 25 -19q0 -6 -2 -13l-353 -1063q-6 -18 -24 -19h-477q-18 0 -25 19zM18 1036l328 -1011h440l334 1011h-360l-160 -635q-6 -23 -25 -22q-18 0 -24 22l-160 635h-373z" />
<glyph unicode="w" horiz-adv-x="1781" d="M-43 1055q-2 7 -2 13q0 19 25 19h2h421q20 0 25 -18l133 -555l115 555q4 18 24 18h379q20 0 25 -18l121 -563l127 563q4 18 24 18h420h2q25 0 25 -19q0 -6 -2 -13l-336 -1063q-6 -18 -25 -19h-416q-20 0 -24 21l-131 559l-135 -559q-6 -20 -25 -21h-416q-18 0 -24 19z M16 1036l318 -1011h375l155 643q6 23 25 22q18 0 24 -22l152 -643h377l319 1011h-364l-148 -655q-2 -23 -24 -23q-18 0 -25 23l-141 655h-338l-133 -645q-2 -23 -25 -22q-18 0 -24 22l-156 645h-367z" />
<glyph unicode="x" horiz-adv-x="1138" d="M-47 14l358 545l-321 490q-6 12 -6 20q0 18 26 18h447q16 0 22 -12l92 -170l97 170q6 12 22 12h434q27 0 27 -20q0 -8 -6 -18l-324 -490l367 -545q6 -12 6 -20q0 -20 -27 -21h-446q-14 0 -23 15l-133 221l-125 -221q-8 -14 -22 -15h-445q-26 0 -26 20q0 11 6 21zM20 25 h381l142 247q10 16 22 17q12 0 23 -17l147 -247h385l-350 520q-10 14 0 28l307 463h-372l-111 -196q-8 -16 -23 -17q-14 0 -22 17l-107 196h-385l305 -463q10 -14 0 -28z" />
<glyph unicode="y" horiz-adv-x="1138" d="M-55 1055q-3 8 -3 14q0 18 25 18h2h434q18 0 25 -18l147 -530l150 530q6 18 25 18h421h2q26 0 26 -18q0 -6 -3 -14l-405 -1125q-63 -166 -166 -233.5t-306 -67.5h-247q-25 0 -25 27v324q0 25 25 24h145q51 0 68.5 15.5t17.5 39.5q0 29 -51 174q-41 113 -131 355 q-150 395 -176 467zM6 1036q106 -289 170 -458q117 -313 129 -347q49 -141 49 -172q0 -45 -20 -69q-31 -37 -117 -37h-119v-272h221q182 0 273.5 58t148.5 210l394 1087h-367l-168 -598q-6 -23 -25 -22q-18 0 -24 22l-166 598h-379z" />
<glyph unicode="z" horiz-adv-x="1138" d="M10 0v313l8 19l453 409h-391q-25 0 -25 27v295q0 24 23 24h2h973q27 0 26 -24v-315l-8 -19l-438 -410h467q27 0 26 -24v-295q0 -27 -26 -27h-1065q-25 0 -25 27zM61 25h1014v243h-508q-31 0 -30 23q0 10 12 22l479 447v276h-922v-243h431q29 0 28 -23q0 -10 -12 -20 l-492 -445v-280z" />
<glyph unicode="{" horiz-adv-x="833" d="M33 422v311q0 25 24 25q150 0 150 110v365q0 127 72 201q86 88 260 88h217q27 0 26 -25v-313q0 -27 -26 -27h-78q-35 0 -53.5 -22.5t-18.5 -75.5v-301q0 -127 -137 -180q137 -53 137 -181v-301q0 -100 72 -100h78q27 0 26 -25v-313q0 -27 -26 -27h-217q-172 0 -258 90 q-74 76 -74 199v367q0 111 -150 110q-25 0 -24 25zM84 444q86 0 130 -42t44 -115v-367q0 -102 61 -164q74 -74 220 -73h192v262h-53q-57 0 -90 34.5t-33 116.5v301q0 68 -58.5 112t-152.5 44q-25 0 -25 25t25 24q92 0 151.5 43t59.5 113v301q0 80 33 114.5t90 34.5h53v262 h-192q-143 0 -217 -71q-63 -63 -64 -166v-365q0 -158 -174 -157v-267z" />
<glyph unicode="|" horiz-adv-x="454" d="M47 -35v1532q0 25 25 25h313q27 0 27 -25v-1532q0 -27 -27 -26h-313q-25 0 -25 26zM98 -10h262v1480h-262v-1480z" />
<glyph unicode="}" horiz-adv-x="833" d="M53 -29q0 25 25 25h78q74 0 73 100v301q0 129 133 181q-133 51 -133 180v301q0 98 -73 98h-78q-25 0 -25 27v313q0 25 25 25h217q174 0 260 -88q74 -76 74 -201v-365q0 -111 145 -110q27 0 27 -25v-311q0 -25 -27 -25q-145 0 -145 -110v-367q0 -123 -74 -199 q-86 -90 -260 -90h-217q-25 0 -25 27v313zM104 -55v-262h191q145 0 219 73q63 63 64 164v367q0 76 42 117.5t130 41.5v263q-88 0 -130 42t-42 117v365q0 102 -64 166q-74 72 -219 71h-191v-262h52q57 0 91 -34.5t34 -114.5v-301q0 -70 56 -113t150 -43q25 0 25 -24 q0 -25 -25 -25q-92 0 -149 -43t-57 -113v-301q0 -78 -35 -114.5t-90 -36.5h-52z" />
<glyph unicode="~" horiz-adv-x="1228" d="M119 561l2 19q47 90 115.5 139t164.5 49q86 0 230 -72q135 -66 203 -65q49 0 77.5 23.5t81.5 111.5q10 16 23 16q18 0 24 -24l76 -283l-2 -18q-49 -90 -116.5 -140.5t-163.5 -50.5q-88 0 -224.5 68.5t-210.5 68.5q-47 0 -79.5 -24.5t-79.5 -106.5q-8 -16 -25 -16 q-16 0 -22 23zM170 563l57 -215q43 66 81 86.5t91 20.5q78 0 222 -72q135 -66 213 -66q76 0 132 41t99 115l-59 217q-49 -70 -84 -90t-88 -20q-78 0 -214.5 68.5t-218.5 68.5q-80 0 -135 -39t-96 -115z" />
<glyph horiz-adv-x="2048" />
<glyph unicode="&#xa1;" horiz-adv-x="645" />
<glyph unicode="&#xa2;" />
<glyph unicode="&#xa3;" />
<glyph unicode="&#xa4;" />
<glyph unicode="&#xa5;" />
<glyph unicode="&#xa6;" horiz-adv-x="454" />
<glyph unicode="&#xa7;" horiz-adv-x="1366" />
<glyph unicode="&#xa8;" horiz-adv-x="569" />
<glyph unicode="&#xa9;" horiz-adv-x="1638" />
<glyph unicode="&#xaa;" horiz-adv-x="1251" />
<glyph unicode="&#xab;" horiz-adv-x="909" />
<glyph unicode="&#xac;" horiz-adv-x="1228" />
<glyph unicode="&#xad;" horiz-adv-x="1228" />
<glyph unicode="&#xae;" horiz-adv-x="1638" />
<glyph unicode="&#xaf;" horiz-adv-x="569" />
<glyph unicode="&#xb0;" horiz-adv-x="819" />
<glyph unicode="&#xb1;" horiz-adv-x="1228" />
<glyph unicode="&#xb2;" horiz-adv-x="819" />
<glyph unicode="&#xb3;" horiz-adv-x="819" />
<glyph unicode="&#xb4;" horiz-adv-x="569" />
<glyph unicode="&#xb5;" horiz-adv-x="1327" />
<glyph unicode="&#xb6;" horiz-adv-x="1269" />
<glyph unicode="&#xb7;" horiz-adv-x="684" />
<glyph unicode="&#xb8;" horiz-adv-x="569" />
<glyph unicode="&#xb9;" horiz-adv-x="819" />
<glyph unicode="&#xba;" horiz-adv-x="1290" />
<glyph unicode="&#xbb;" horiz-adv-x="909" />
<glyph unicode="&#xbf;" horiz-adv-x="1175" />
<glyph unicode="&#xc0;" horiz-adv-x="1478" />
<glyph unicode="&#xc1;" horiz-adv-x="1478" />
<glyph unicode="&#xc2;" horiz-adv-x="1478" />
<glyph unicode="&#xc3;" horiz-adv-x="1478" />
<glyph unicode="&#xc4;" horiz-adv-x="1478" />
<glyph unicode="&#xc5;" horiz-adv-x="1478" />
<glyph unicode="&#xc6;" horiz-adv-x="2162" />
<glyph unicode="&#xc7;" horiz-adv-x="1554" />
<glyph unicode="&#xc8;" horiz-adv-x="1441" />
<glyph unicode="&#xc9;" horiz-adv-x="1441" />
<glyph unicode="&#xca;" horiz-adv-x="1441" />
<glyph unicode="&#xcb;" horiz-adv-x="1441" />
<glyph unicode="&#xcc;" horiz-adv-x="681" />
<glyph unicode="&#xcd;" horiz-adv-x="681" />
<glyph unicode="&#xce;" horiz-adv-x="681" />
<glyph unicode="&#xcf;" horiz-adv-x="681" />
<glyph unicode="&#xd1;" horiz-adv-x="1554" />
<glyph unicode="&#xd2;" horiz-adv-x="1630" />
<glyph unicode="&#xd3;" horiz-adv-x="1630" />
<glyph unicode="&#xd4;" horiz-adv-x="1630" />
<glyph unicode="&#xd5;" horiz-adv-x="1630" />
<glyph unicode="&#xd6;" horiz-adv-x="1630" />
<glyph unicode="&#xd7;" horiz-adv-x="1228" />
<glyph unicode="&#xd8;" horiz-adv-x="1630" />
<glyph unicode="&#xd9;" horiz-adv-x="1554" />
<glyph unicode="&#xda;" horiz-adv-x="1554" />
<glyph unicode="&#xdb;" horiz-adv-x="1554" />
<glyph unicode="&#xdc;" horiz-adv-x="1554" />
<glyph unicode="&#xdd;" horiz-adv-x="1366" />
<glyph unicode="&#xdf;" horiz-adv-x="1327" />
<glyph unicode="&#xe0;" horiz-adv-x="1251" />
<glyph unicode="&#xe1;" horiz-adv-x="1251" />
<glyph unicode="&#xe2;" horiz-adv-x="1251" />
<glyph unicode="&#xe3;" horiz-adv-x="1251" />
<glyph unicode="&#xe4;" horiz-adv-x="1251" />
<glyph unicode="&#xe5;" horiz-adv-x="1251" />
<glyph unicode="&#xe6;" horiz-adv-x="1970" />
<glyph unicode="&#xe7;" horiz-adv-x="1251" />
<glyph unicode="&#xe8;" horiz-adv-x="1290" />
<glyph unicode="&#xe9;" horiz-adv-x="1290" />
<glyph unicode="&#xea;" horiz-adv-x="1290" />
<glyph unicode="&#xeb;" horiz-adv-x="1290" />
<glyph unicode="&#xec;" horiz-adv-x="645" />
<glyph unicode="&#xed;" horiz-adv-x="645" />
<glyph unicode="&#xee;" horiz-adv-x="645" />
<glyph unicode="&#xef;" horiz-adv-x="645" />
<glyph unicode="&#xf1;" horiz-adv-x="1327" />
<glyph unicode="&#xf2;" horiz-adv-x="1290" />
<glyph unicode="&#xf3;" horiz-adv-x="1290" />
<glyph unicode="&#xf4;" horiz-adv-x="1290" />
<glyph unicode="&#xf5;" horiz-adv-x="1290" />
<glyph unicode="&#xf6;" horiz-adv-x="1290" />
<glyph unicode="&#xf7;" horiz-adv-x="1228" />
<glyph unicode="&#xf8;" horiz-adv-x="1290" />
<glyph unicode="&#xf9;" horiz-adv-x="1327" />
<glyph unicode="&#xfa;" horiz-adv-x="1327" />
<glyph unicode="&#xfb;" horiz-adv-x="1327" />
<glyph unicode="&#xfc;" horiz-adv-x="1327" />
<glyph unicode="&#xfd;" horiz-adv-x="1138" />
<glyph unicode="&#xff;" horiz-adv-x="1138" />
<glyph unicode="&#x152;" horiz-adv-x="2314" />
<glyph unicode="&#x153;" horiz-adv-x="2009" />
<glyph unicode="&#x178;" horiz-adv-x="1366" />
<glyph unicode="&#x2c6;" horiz-adv-x="569" />
<glyph unicode="&#x2dc;" horiz-adv-x="569" />
<glyph unicode="&#x2000;" horiz-adv-x="844" />
<glyph unicode="&#x2001;" horiz-adv-x="1688" />
<glyph unicode="&#x2002;" horiz-adv-x="844" />
<glyph unicode="&#x2003;" horiz-adv-x="1688" />
<glyph unicode="&#x2004;" horiz-adv-x="562" />
<glyph unicode="&#x2005;" horiz-adv-x="422" />
<glyph unicode="&#x2006;" horiz-adv-x="281" />
<glyph unicode="&#x2007;" horiz-adv-x="281" />
<glyph unicode="&#x2008;" horiz-adv-x="211" />
<glyph unicode="&#x2009;" horiz-adv-x="337" />
<glyph unicode="&#x200a;" horiz-adv-x="93" />
<glyph unicode="&#x2010;" horiz-adv-x="833" d="M72 381v334q0 25 24 24h647q27 0 27 -24v-334q0 -27 -27 -27h-647q-25 0 -24 27zM123 406h596v282h-596v-282z" />
<glyph unicode="&#x2011;" horiz-adv-x="833" d="M72 381v334q0 25 24 24h647q27 0 27 -24v-334q0 -27 -27 -27h-647q-25 0 -24 27zM123 406h596v282h-596v-282z" />
<glyph unicode="&#x2012;" horiz-adv-x="833" d="M72 381v334q0 25 24 24h647q27 0 27 -24v-334q0 -27 -27 -27h-647q-25 0 -24 27zM123 406h596v282h-596v-282z" />
<glyph unicode="&#x2013;" horiz-adv-x="1024" />
<glyph unicode="&#x2014;" horiz-adv-x="2048" />
<glyph unicode="&#x2018;" horiz-adv-x="606" d="M90 686v348q0 217 96.5 321.5t300.5 131.5q31 4 31 -25v-178q0 -20 -46 -26.5t-83 -45t-37 -96.5h140q27 0 26 -24v-406q0 -27 -26 -27h-377q-25 0 -25 27zM141 711h326v354h-143q-25 0 -25 27q0 86 40 141t128 72v129q-168 -27 -247 -120t-79 -280v-323z" />
<glyph unicode="&#x2019;" horiz-adv-x="606" d="M90 686v178q0 23 21 25q133 14 145 141h-141q-25 0 -25 27v405q0 25 25 25h377q27 0 26 -25v-364q0 -211 -102.5 -323.5t-284.5 -112.5q-41 0 -41 24zM141 715q162 27 240 110q86 95 86 273v338h-326v-355h142q27 0 26 -24q0 -182 -168 -213v-129z" />
<glyph unicode="&#x201c;" horiz-adv-x="1062" d="M70 686v348q0 217 96 321.5t301 131.5q31 4 31 -25v-178q0 -20 -46 -26.5t-83 -45t-37 -96.5h139q27 0 27 -24v-406q0 -27 -27 -27h-377q-25 0 -24 27zM121 711h325v354h-143q-25 0 -24 27q0 86 39.5 141t127.5 72v129q-168 -27 -246.5 -120t-78.5 -280v-323zM569 686 v348q0 217 96.5 321.5t301.5 131.5q31 4 30 -25v-178q0 -20 -46 -26.5t-83 -45t-37 -96.5h140q27 0 26 -24v-406q0 -27 -26 -27h-377q-25 0 -25 27zM621 711h325v354h-143q-25 0 -25 27q0 86 40 141t128 72v129q-168 -27 -246.5 -120t-78.5 -280v-323z" />
<glyph unicode="&#x201d;" horiz-adv-x="1062" d="M70 686v178q0 23 20 25q133 14 146 141h-142q-25 0 -24 27v405q0 25 24 25h377q27 0 27 -25v-364q0 -211 -102.5 -323.5t-284.5 -112.5q-41 0 -41 24zM121 715q162 27 239 110q86 95 86 273v338h-325v-355h141q27 0 27 -24q0 -182 -168 -213v-129zM569 686v178 q0 23 21 25q133 14 145 141h-141q-25 0 -25 27v405q0 25 25 25h377q27 0 26 -25v-364q0 -211 -102 -323.5t-285 -112.5q-41 0 -41 24zM621 715q162 27 239 110q86 95 86 273v338h-325v-355h141q27 0 26 -24q0 -182 -167 -213v-129z" />
<glyph unicode="&#x2022;" horiz-adv-x="1024" />
<glyph unicode="&#x202f;" horiz-adv-x="337" />
<glyph unicode="&#x205f;" horiz-adv-x="422" />
<glyph unicode="&#x2122;" horiz-adv-x="2048" />
<glyph unicode="&#x25fc;" horiz-adv-x="1085" d="M0 0v1085h1085v-1085h-1085z" />
</font>
</defs>
</svg>
